<?xml version="1.0" standalone="no"?>
<!DOCTYPE svg PUBLIC "-//W3C//DTD SVG 20010904//EN"
 "http://www.w3.org/TR/2001/REC-SVG-20010904/DTD/svg10.dtd">
<svg version="1.0" xmlns="http://www.w3.org/2000/svg"
 width="500.000000pt" height="250.000000pt" viewBox="0 0 500.000000 250.000000"
 preserveAspectRatio="xMidYMid meet">

<g transform="translate(0.000000,250.000000) scale(0.100000,-0.100000)"
fill="#000000" stroke="none">
<path d="M0 1250 l0 -1250 2500 0 2500 0 0 1250 0 1250 -247 -1 c-215 0 -242
-2 -202 -13 111 -30 179 -95 229 -219 30 -72 30 -79 28 -217 -3 -124 -5 -144
-21 -154 -27 -17 -37 8 -37 90 0 56 -3 73 -16 78 -27 10 -34 7 -55 -29 -44
-74 -89 -61 -114 34 -8 30 -21 61 -29 69 -12 12 -16 11 -29 -9 -8 -13 -20 -46
-26 -74 -32 -133 -88 -128 -121 13 -6 28 -17 55 -23 59 -6 3 -23 -8 -38 -26
-16 -20 -41 -36 -61 -40 l-33 -7 -3 -77 c-2 -60 -6 -79 -19 -84 -9 -4 -21 1
-29 12 -20 26 -19 272 0 317 49 116 64 144 98 179 41 42 98 75 155 88 23 5
-558 9 -1444 10 l-1483 1 0 -27 c0 -16 -4 -34 -9 -42 -11 -18 19 -104 47 -134
25 -26 28 -52 10 -61 -10 -5 -10 -7 0 -12 6 -3 12 -16 12 -29 0 -12 8 -40 17
-61 9 -22 17 -41 18 -44 0 -3 11 -21 23 -40 12 -19 19 -42 17 -51 -3 -10 1
-19 10 -23 10 -3 15 -19 15 -45 0 -63 -40 -89 -87 -56 -30 21 -53 9 -53 -27 0
-16 -7 -43 -16 -59 -12 -24 -21 -30 -43 -27 -18 1 -43 -7 -68 -25 -46 -32 -85
-35 -113 -7 -21 21 -35 27 -25 11 3 -5 1 -12 -5 -16 -18 -11 -11 -35 14 -44
32 -13 38 -36 17 -62 -28 -35 -58 -19 -59 34 -1 82 -51 177 -93 177 -10 0 -21
5 -24 11 -7 10 -37 7 -111 -13 -28 -8 -48 -22 -64 -45 -16 -24 -36 -37 -73
-48 -61 -18 -70 -10 -62 53 3 25 2 42 -4 42 -6 0 -8 -7 -5 -15 13 -32 -17 -13
-38 26 -55 97 -68 126 -74 162 -4 20 -12 37 -19 37 -20 0 -24 -11 -14 -38 7
-17 6 -29 -1 -36 -5 -5 -10 -23 -10 -38 0 -55 -17 -27 -34 56 l-18 84 22 22
c18 18 21 29 16 58 -19 119 -19 129 4 154 l22 23 -6 -30 c-8 -44 8 -143 27
-162 15 -15 18 -15 36 1 12 11 27 15 39 11 26 -8 35 7 22 39 -11 31 -30 34
-30 6 0 -33 -34 -24 -48 12 -9 24 -9 41 0 70 9 29 8 51 -1 95 -11 49 -11 57 2
65 23 12 7 62 -21 66 -21 3 -22 0 -17 -35 5 -27 2 -44 -10 -58 -15 -20 -16
-20 -14 5 1 14 1 40 0 58 l-1 32 -300 0 -300 0 0 -1250z m3354 540 c14 -5 32
-22 40 -37 10 -19 15 -22 16 -11 0 20 46 58 70 58 10 0 29 -9 44 -21 20 -16
26 -29 26 -59 0 -30 -6 -43 -26 -59 -15 -12 -33 -21 -40 -21 -28 0 -65 25 -71
48 l-6 25 -14 -27 c-15 -29 -49 -46 -89 -46 -20 0 -24 5 -24 29 0 36 19 51 27
22 3 -12 11 -21 18 -21 20 0 45 29 45 50 0 22 -26 50 -46 50 -8 0 -14 -9 -14
-20 0 -11 -7 -20 -15 -20 -10 0 -15 11 -15 35 0 30 3 35 24 35 14 0 36 -4 50
-10z m327 -17 c21 -59 21 -59 31 -30 5 15 16 27 24 27 18 0 18 2 -7 -64 -20
-52 -39 -73 -39 -43 0 6 -9 30 -19 52 l-18 40 -17 -52 c-10 -29 -21 -53 -25
-53 -4 0 -17 27 -29 60 -18 52 -19 60 -6 60 9 0 18 -9 21 -20 8 -30 20 -24 33
15 14 42 37 45 51 8z m144 -25 l35 -53 0 53 c0 40 4 52 15 52 12 0 15 -16 15
-80 0 -97 -11 -102 -64 -28 l-36 52 0 -32 c0 -22 -5 -32 -15 -32 -12 0 -15 13
-15 60 0 77 17 79 65 8z m103 -1 c2 -37 0 -47 -12 -47 -12 0 -16 12 -16 51 0
66 24 62 28 -4z m170 37 c49 -34 47 -110 -4 -133 -35 -16 -47 -14 -78 10 -37
29 -37 89 0 118 32 25 52 26 82 5z m275 -15 c41 -50 9 -117 -61 -126 -42 -6
-42 -5 -42 25 0 37 19 53 27 23 6 -25 26 -27 47 -5 21 20 20 43 -1 66 -21 24
-43 23 -43 -2 0 -11 -7 -20 -15 -20 -11 0 -15 11 -15 36 l0 37 43 -7 c24 -4
49 -15 60 -27z m-139 -47 c30 -78 31 -82 13 -82 -8 0 -20 19 -27 43 l-13 42
-18 -42 c-10 -24 -25 -43 -33 -43 -13 0 -13 8 5 53 12 28 25 62 30 75 5 12 10
22 13 22 2 0 16 -30 30 -68z m-2699 -16 c0 -22 -14 -29 -34 -17 -19 12 -6 43
16 39 10 -2 18 -12 18 -22z m2445 -51 c0 -11 -11 -15 -40 -15 -29 0 -40 4 -40
15 0 11 11 15 40 15 29 0 40 -4 40 -15z m-2893 -78 c13 -21 20 -87 11 -93 -15
-9 -28 16 -28 54 0 21 -4 31 -10 27 -6 -4 -18 -4 -27 -1 -12 5 -13 9 -4 20 12
15 47 11 58 -7z m90 -23 c9 -23 -11 -38 -26 -20 -13 16 -7 36 10 36 5 0 12 -7
16 -16z m13 -77 c0 -20 -1 -20 -16 -5 -9 9 -13 21 -9 27 10 16 25 3 25 -22z
m2510 -75 c0 -12 -3 -13 -12 -4 -14 14 -28 16 -28 3 0 -5 9 -13 20 -16 23 -7
27 -40 5 -49 -21 -8 -45 3 -45 22 0 12 3 13 12 4 14 -14 28 -16 28 -3 0 5 -9
13 -20 16 -22 7 -27 41 -7 48 21 7 47 -5 47 -21z m850 -4 c0 -7 -5 -6 -15 2
-9 7 -18 10 -22 6 -4 -3 3 -13 15 -22 25 -18 29 -39 7 -48 -21 -8 -45 3 -45
22 0 12 3 13 12 4 14 -14 28 -16 28 -3 0 5 -9 13 -20 16 -22 7 -27 41 -7 48
16 6 47 -11 47 -25z m-3395 12 c-3 -5 -12 -10 -18 -10 -7 0 -6 4 3 10 19 12
23 12 15 0z m2233 -32 c1 -25 -2 -38 -10 -39 -7 0 -21 -2 -30 -4 -15 -3 -18 4
-18 42 0 42 1 44 27 41 24 -3 28 -8 31 -40z m147 35 c-28 -7 -43 -23 -22 -23
9 0 17 -4 17 -10 0 -5 -7 -10 -15 -10 -8 0 -15 -4 -15 -10 0 -5 12 -10 26 -10
14 0 23 -4 19 -10 -3 -5 -17 -10 -31 -10 -22 0 -24 4 -24 45 0 44 0 45 33 44
21 -1 25 -3 12 -6z m313 -3 c-10 -6 -15 -21 -14 -41 1 -16 -1 -32 -6 -35 -4
-3 -8 13 -8 35 0 29 -5 41 -17 44 -10 3 0 5 22 6 30 0 36 -2 23 -9z m232 -5
c0 -8 7 -15 16 -15 10 0 14 6 10 15 -3 8 -1 15 4 15 6 0 10 -21 10 -46 0 -26
-4 -43 -10 -39 -5 3 -7 12 -3 20 3 9 -1 15 -11 15 -9 0 -16 -6 -16 -14 0 -8
-4 -18 -10 -21 -6 -4 -10 12 -10 39 0 25 5 46 10 46 6 0 10 -7 10 -15z m160
-24 c0 -22 -4 -43 -10 -46 -6 -4 -10 12 -10 39 0 25 5 46 10 46 6 0 10 -18 10
-39z m148 32 c-13 -3 -18 -15 -18 -44 0 -24 -4 -38 -10 -34 -5 3 -10 21 -10
40 0 18 -6 36 -12 38 -7 3 5 5 27 5 22 0 32 -2 23 -5z m-3218 -277 c0 -3 -4
-8 -10 -11 -5 -3 -10 -1 -10 4 0 6 5 11 10 11 6 0 10 -2 10 -4z m635 -76 c3
-5 1 -10 -4 -10 -6 0 -11 5 -11 10 0 6 2 10 4 10 3 0 8 -4 11 -10z m2560 -159
c-18 -35 -37 -42 -90 -33 l-40 7 37 18 c20 9 44 17 55 17 10 0 25 5 33 10 22
14 22 13 5 -19z m191 -12 c10 -8 10 -18 3 -37 -18 -47 -34 -58 -86 -56 -62 3
-61 2 -38 20 18 14 19 16 3 28 -14 10 -12 12 18 13 36 1 58 13 38 20 -6 2 -20
10 -30 18 -16 12 -17 16 -5 24 15 10 70 -7 97 -30z m134 -43 c0 -3 -4 -8 -10
-11 -5 -3 -10 -1 -10 4 0 6 5 11 10 11 6 0 10 -2 10 -4z m-320 -66 c12 -8 9
-10 -12 -10 -16 0 -28 5 -28 10 0 13 20 13 40 0z m-4220 -71 c0 -5 -10 -9 -22
-7 -29 4 -35 -19 -6 -25 l23 -4 -22 -8 c-31 -10 -29 -25 2 -25 14 0 25 -4 25
-10 0 -5 -16 -10 -35 -10 l-35 0 0 50 0 50 35 0 c19 0 35 -5 35 -11z m175 0
c11 -16 -3 -23 -19 -10 -10 8 -16 9 -21 2 -3 -6 6 -16 20 -23 37 -17 31 -53
-10 -53 -21 0 -31 5 -33 18 -3 16 -1 17 17 5 11 -7 24 -8 28 -4 4 5 3 11 -3
13 -28 10 -47 31 -41 47 7 18 52 22 62 5z m180 0 c10 -16 -3 -23 -18 -11 -18
15 -27 5 -27 -30 0 -29 24 -40 33 -15 2 6 8 9 12 5 16 -15 -5 -39 -32 -36 -24
2 -29 8 -31 36 -2 19 -1 40 2 48 6 16 52 19 61 3z m135 -29 c0 -29 4 -40 15
-40 11 0 15 11 15 40 0 22 5 40 10 40 6 0 10 -20 10 -45 0 -49 -18 -67 -49
-48 -18 11 -29 93 -12 93 6 0 11 -18 11 -40z m234 25 c6 -18 -5 -20 -21 -4
-16 16 -33 2 -33 -26 0 -29 16 -41 34 -26 17 14 29 2 15 -16 -36 -43 -85 13
-63 71 8 20 60 21 68 1z m136 -5 c0 -11 7 -20 15 -20 8 0 15 9 15 20 0 11 5
20 10 20 6 0 10 -22 10 -50 0 -27 -4 -50 -10 -50 -5 0 -10 9 -10 20 0 11 -7
20 -15 20 -9 0 -15 -9 -15 -21 0 -12 -5 -19 -12 -17 -17 6 -17 98 -1 98 7 0
13 -9 13 -20z m228 -28 c8 -24 11 -46 7 -50 -4 -4 -10 -1 -12 6 -3 6 -13 12
-23 12 -10 0 -20 -6 -23 -12 -2 -7 -8 -10 -12 -6 -4 4 -2 28 5 53 16 58 38 56
58 -3z m-918 -187 c16 -19 5 -34 -12 -17 -15 15 -28 15 -28 2 0 -6 11 -15 25
-20 28 -11 32 -31 10 -50 -17 -14 -55 -4 -55 16 0 8 5 14 10 14 6 0 10 -4 10
-10 0 -5 7 -10 15 -10 23 0 18 16 -10 28 -26 12 -34 47 -12 55 22 9 34 7 47
-8z m140 -34 c0 -28 -4 -53 -10 -56 -6 -4 -10 15 -10 49 0 31 5 56 10 56 6 0
10 -22 10 -49z m145 17 l20 -33 3 33 c5 47 22 29 22 -23 0 -56 -14 -65 -40
-23 l-20 33 0 -27 c0 -15 -4 -30 -10 -33 -6 -4 -10 15 -10 49 0 31 4 56 8 56
4 0 17 -15 27 -32z m295 -13 c0 -42 2 -45 26 -45 14 0 23 -4 19 -10 -3 -5 -19
-10 -36 -10 -29 0 -29 1 -29 55 0 30 5 55 10 55 6 0 10 -20 10 -45z m178 -16
c-2 -24 -7 -44 -13 -44 -12 0 -19 69 -10 93 11 29 26 -4 23 -49z m163 44 c18
32 29 17 29 -38 0 -30 -4 -55 -10 -55 -5 0 -10 14 -10 31 0 26 -3 29 -14 20
-11 -9 -15 -9 -19 1 -3 7 -6 1 -6 -14 -2 -49 -19 -39 -23 13 -1 28 -1 53 1 55
2 2 13 -4 24 -13 18 -17 19 -17 28 0z m159 -39 c0 -34 -4 -53 -10 -49 -5 3
-10 28 -10 56 0 27 5 49 10 49 6 0 10 -25 10 -56z m185 46 c3 -5 -1 -10 -9
-10 -10 0 -16 -13 -18 -42 -2 -24 -7 -43 -13 -43 -5 0 -8 17 -7 38 3 27 -1 39
-12 43 -9 3 -16 10 -16 15 0 12 67 11 75 -1z m175 0 c0 -5 -11 -10 -25 -10
-31 0 -33 -15 -2 -25 l22 -8 -22 -4 c-32 -6 -30 -33 2 -33 14 0 25 -5 25 -11
0 -6 -14 -9 -32 -7 -32 3 -33 4 -36 56 l-3 52 35 0 c20 0 36 -4 36 -10z m170
-5 c16 -19 5 -34 -12 -17 -15 15 -28 15 -28 2 0 -6 11 -15 25 -20 28 -11 32
-31 10 -50 -18 -15 -55 -4 -55 17 0 12 3 13 15 3 8 -6 19 -8 26 -4 8 5 3 12
-15 21 -24 13 -34 41 -19 56 11 12 40 7 53 -8z"/>
<path d="M3451 1756 c-31 -37 9 -103 47 -80 36 23 23 94 -18 94 -10 0 -23 -6
-29 -14z m39 -35 c0 -6 -4 -13 -10 -16 -5 -3 -10 1 -10 9 0 9 5 16 10 16 6 0
10 -4 10 -9z"/>
<path d="M4032 1758 c-7 -7 -12 -24 -12 -38 0 -52 48 -68 76 -25 15 23 15 27
0 50 -18 27 -45 32 -64 13z m39 -41 c-1 -12 -15 -9 -19 4 -3 6 1 10 8 8 6 -3
11 -8 11 -12z"/>
<path d="M3345 1400 c-3 -5 1 -10 9 -10 9 0 16 5 16 10 0 6 -4 10 -9 10 -6 0
-13 -4 -16 -10z"/>
<path d="M3345 1360 c3 -5 10 -10 16 -10 5 0 9 5 9 10 0 6 -7 10 -16 10 -8 0
-12 -4 -9 -10z"/>
<path d="M1200 671 c0 -12 5 -21 10 -21 6 0 10 6 10 14 0 8 -4 18 -10 21 -5 3
-10 -3 -10 -14z"/>
<path d="M774 2443 c4 -32 9 -66 12 -75 9 -31 42 2 56 54 6 26 15 48 19 48 4
0 9 7 13 15 4 12 -5 15 -50 15 l-56 0 6 -57z"/>
<path d="M4318 2421 c-50 -32 -80 -69 -107 -133 -14 -34 -17 -61 -13 -125 4
-74 6 -83 23 -83 11 0 38 18 59 40 34 35 43 39 60 30 25 -13 34 -32 50 -98 11
-47 31 -74 45 -60 2 2 12 33 21 69 20 80 38 109 68 109 32 0 44 -17 64 -92 21
-75 39 -84 67 -31 18 33 25 38 57 38 l36 0 5 85 c5 95 -8 139 -57 198 -33 38
-115 89 -124 76 -8 -11 -192 -12 -192 -1 0 13 -15 8 -62 -22z"/>
<path d="M867 1811 c-3 -14 0 -21 9 -21 16 0 18 9 5 28 -6 10 -10 9 -14 -7z"/>
</g>
</svg>
